<svg xmlns="http://www.w3.org/2000/svg" viewBox="0 0 64 64" fill="none">
  <rect x="2" y="2" width="60" height="60" rx="14" fill="#10B981"/>
  <g transform="translate(8 8)">
    <path
      d="M19 29h3v2a1 1 0 0 0 1 1h2a1 1 0 0 0 1-1v-3a3.16 3.16 0 0 0 2-2h1a1 1 0 0 0 1-1v-2a1 1 0 0 0-1-1h-1a5 5 0 0 0-2-4v-1a4 4 0 0 0-3.2 1.6l-.3.4H19a6 6 0 0 0-6 6v1a5 5 0 0 0 2 4v3a1 1 0 0 0 1 1h2a1 1 0 0 0 1-1z"
      stroke="#FFFFFF"
      stroke-width="2.3"
      stroke-linecap="round"
      stroke-linejoin="round"
    />
    <path d="M24 22h.01" stroke="#FFFFFF" stroke-width="2.3" stroke-linecap="round" stroke-linejoin="round"/>
    <path d="M10 20v1a2 2 0 0 0 2 2h1" stroke="#FFFFFF" stroke-width="2.3" stroke-linecap="round" stroke-linejoin="round"/>
  </g>
</svg>
